<svg width="41" height="20" viewBox="0 0 41 20" fill="none" xmlns="http://www.w3.org/2000/svg">
<g clip-path="url(#clip0_2275_5495)">
<path d="M0.36377 10C0.36377 4.477 4.85877 0 10.4048 0C13.4108 0 16.1088 1.316 17.9488 3.401C21.2878 7.134 24.0488 6.938 26.9808 4.182C28.4198 2.829 30.3598 2 32.4938 2C36.9308 2 40.5268 5.582 40.5268 10C40.5268 14.418 36.9308 18 32.4938 18C30.3598 18 28.4198 17.171 26.9808 15.818C24.0498 13.063 21.2888 12.866 17.9518 16.596C16.1108 18.683 13.4118 20 10.4048 20C4.85877 20 0.36377 15.523 0.36377 10Z" fill="#AD1FFF"/>
</g>
<defs>
<clipPath id="clip0_2275_5495">
<rect width="41" height="20" fill="white"/>
</clipPath>
</defs>
</svg>
